<?xml version="1.0" encoding="utf-8"?>
<!-- Generator: Adobe Illustrator 19.0.0, SVG Export Plug-In . SVG Version: 6.00 Build 0)  -->
<svg version="1.1" id="Layer_5" xmlns="http://www.w3.org/2000/svg" xmlns:xlink="http://www.w3.org/1999/xlink" x="0px" y="0px"
	 viewBox="0 0 1400 788.8" style="enable-background:new 0 0 1400 788.8;" xml:space="preserve">
<style type="text/css">
	.st0{fill:#9FF49F;}
	.st1{fill:#FFFFFF;}
	.st2{fill:#E6E6E6;}
	.st3{fill:#161414;}
	.st4{fill:#595757;}
	.st5{fill:#9F7451;}
	.st6{fill:#70381C;}
	.st7{fill:#8E6444;}
	.st8{fill:#21333D;}
	.st9{fill:#72AFC1;}
	.st10{fill:#639BA8;}
	.st11{fill:#111B1C;}
	.st12{fill:#D6925F;}
	.st13{fill:#333333;}
	.st14{fill:#3C3F72;}
	.st15{fill:#33375C;}
	.st16{fill:#222323;}
	.st17{fill:#B5771D;}
	.st18{fill:#F2B17C;}
	.st19{fill:#233538;}
	.st20{fill:#90A5D4;}
	.st21{fill:#7F1717;}
	.st22{fill:#9B2424;}
	.st23{fill:#E6E9EF;}
</style>
<g>
	<rect y="0" class="st0" width="1400" height="704"/>
	<rect y="645.4" class="st1" width="1400" height="143.4"/>
	<g>
		<ellipse class="st2" cx="1081.9" cy="717.4" rx="112.7" ry="24.7"/>
		<path class="st2" d="M1022.2,691.6c0,14.2-182.9,25.8-408.4,25.8c-225.6,0-408.4-11.5-408.4-25.8c0-14.2,182.9-25.8,408.4-25.8
			C839.4,665.9,1022.2,677.4,1022.2,691.6z"/>
		<rect x="607.8" y="500.1" class="st3" width="16.5" height="176.4"/>
		<polygon class="st3" points="462.1,704 548.5,472.6 533,466.8 444.5,704 		"/>
		<polygon class="st4" points="458.7,704 545.1,472.6 529.6,466.8 441.1,704 		"/>
		<polygon class="st3" points="769.9,704 683.6,472.6 699,466.8 787.5,704 		"/>
		<polygon class="st4" points="773.3,704 687,472.6 702.4,466.8 790.9,704 		"/>
		<rect x="221.8" y="500" class="st5" width="217.7" height="28.5"/>
		<rect x="221.8" y="500" class="st6" width="217.7" height="13"/>
		<rect x="221.8" y="525.1" class="st7" width="217.7" height="3.4"/>
		<path class="st5" d="M1026.6,499.5c0,4.7-3.8,8.5-8.5,8.5H213.9c-4.7,0-8.5-3.8-8.5-8.5V72.4c0-4.7,3.8-8.5,8.5-8.5H1018
			c4.7,0,8.5,3.8,8.5,8.5V499.5z"/>
		<path class="st8" d="M1006.1,477.3c0,4.7-3.8,8.5-8.5,8.5H234.4c-4.7,0-8.5-3.8-8.5-8.5V94.6c0-4.7,3.8-8.5,8.5-8.5h763.1
			c4.7,0,8.5,3.8,8.5,8.5V477.3z"/>
		<path class="st9" d="M1060,299.8c0,0-6.6,3-15.2,10.7c-8.5,7.7-26.5,31.2-25.6,32.9c0.9,1.7,21.1,33.3,23.8,63.2
			c3.4,37.2,2.9,36.9,4,68.1c4.9,0.7,13.7,5.3,43.5,4.3c29.9-1.1,31.4-7,31.4-7s4.7,19.1,0,0c-12.4-50.8,1.9-111.8,1.9-111.8
			l6.5-32.9c0,0-30.7-29.5-37.6-31.6C1085.8,293.4,1060.6,296.4,1060,299.8z"/>
		<g>
			<path class="st10" d="M1122.3,473.5c0.1,0.3,0.1,0.5,0.2,0.7C1122.4,474,1122.3,473.7,1122.3,473.5z"/>
			<path class="st10" d="M1121.9,471.8c0,0.2,0.1,0.4,0.1,0.6C1121.9,472,1121.9,471.8,1121.9,471.8z"/>
			<path class="st10" d="M1122.5,474.2c0.2,0.6,0.3,1.3,0.5,2C1122.8,475.6,1122.6,475,1122.5,474.2z"/>
			<path class="st10" d="M1122,472.4c0.1,0.3,0.2,0.7,0.3,1.1C1122.2,473.1,1122.1,472.7,1122,472.4z"/>
			<path class="st10" d="M1123,476.2C1123,476.2,1123,476.2,1123,476.2C1123,476.2,1123,476.2,1123,476.2z"/>
			<path class="st10" d="M1123.9,479.9C1124,480.4,1124,480.3,1123.9,479.9L1123.9,479.9z"/>
			<path class="st10" d="M1123.7,479.1c0.1,0.3,0.2,0.6,0.2,0.8C1123.8,479.7,1123.7,479.5,1123.7,479.1z"/>
			<path class="st10" d="M1090.5,478.8c29.9-1.1,31.4-7,31.4-7c-12.4-50.8,1.9-111.8,1.9-111.8l6.5-32.9c0,0-30.7-29.5-37.6-31.6
				c-0.9-0.3-2.2-0.5-3.7-0.6c-10.4,2.9-19,13.1-22.3,35.2c0,0,3.3,100.9,2.3,148.4C1074.5,478.9,1081.6,479.1,1090.5,478.8z"/>
			<path class="st10" d="M1123.3,477.7c0.1,0.6,0.3,1,0.3,1.4C1123.6,478.7,1123.4,478.2,1123.3,477.7z"/>
			<path class="st10" d="M1123,476.2c0.1,0.5,0.2,1,0.4,1.5C1123.2,477.3,1123.1,476.8,1123,476.2z"/>
		</g>
		<path class="st11" d="M1062,293.4c0,0,10.3-3.7,33.3-0.8l1,3v3.5c0,0-33.8-0.3-37.3,2.5C1055.4,304.4,1062,293.4,1062,293.4z"/>
		<path class="st12" d="M1096.2,299.8C1096.2,299.8,1096.2,299.8,1096.2,299.8c0-2.3-0.1-3.8-0.1-3.8s-0.8,0-2.2-0.1
			c-3-6.5-7-18.6-7-18.6c-1.2-3.4-23.6-16.8-23,2c0.3,9.3-0.7,14.7-1.7,17.9c-2.1,0.4-3.7,0.9-4.3,1.6c-3.8,4.1-2.7,25-1.4,27.8
			l10.2,10.5l12.4-5.3c0,0,13.5-8,15.6-12.6c1.1-2.4,1.4-8.8,1.5-14.3C1096.9,302.3,1096.9,300.3,1096.2,299.8z"/>
		<path class="st13" d="M1033.9,696.2c0,0-4.6,6.3-11.7,9.3c-7.1,3-23.9,4.1-27.1,4.1c-3.2,0-3.7,9.2-1.4,10.7
			c2.3,1.5,44.5,0.6,44.5,0.6s9.2-7.1,12.4-7.3s2,6.9,2,6.9s7.5,0.6,13.1,0.6c5.7,0,9.1-1.5,9.1-1.5s1.2-9.7-1.4-14.5
			C1070.9,700.3,1036.8,693,1033.9,696.2z"/>
		<path class="st13" d="M1118.7,700.6c0,0,0.4,11.1,8.8,19.4c8.3,8.3,17.9,7.9,23.5,0c5.5-7.9,4.9-18.4,3.4-22.9
			C1152.8,692.7,1120.2,688.4,1118.7,700.6z"/>
		<path class="st14" d="M1047,482.9c0,0,14.5,3,26.9,3c12.4,0,49.5-6,49.5-6s4.7,12.4,7.3,28.2c2.6,15.8,0,24.8,0,24.8
			s13.7,92.6,18.8,120.4c5.1,27.7,7.3,46.1,7.7,50.8c0.4,4.7-9-9.4-22.6-7.3c-13.7,2.1-18.8,8.1-18.4,6c0.4-2.1-0.4-65.3-3.4-96.5
			c-3-31.2-24.8-73.4-24.8-73.4s-1.3,10.7-3.8,38.8c-2.6,28.2-5.1,68.3-5.1,86.6s-3.8,51.2-3.8,51.2s-16.2,0.4-23-5.5
			c-6.8-6-19.2-7.3-19.2-7.3s22.3-67.4,21.8-92.6c-0.5-25.2,0.4-64-3.9-79C1046.5,510.2,1047,482.9,1047,482.9z"/>
		<path class="st15" d="M1073.3,516.6c-4.8-6.7-5.2-23-5.1-30.9c-10.7-0.7-21.2-2.8-21.2-2.8s-0.4,27.3,3.8,42.3
			c4.3,14.9,3.4,53.8,3.9,79c0.5,25.2-21.8,92.6-21.8,92.6s12.4,1.3,19.2,7.3c6.8,6,23,5.5,23,5.5s3.8-32.9,3.8-51.2
			s2.6-58.5,5.1-86.6c2.6-28.2,3.8-38.8,3.8-38.8S1079.8,525.6,1073.3,516.6z"/>
		<path class="st16" d="M1123.4,479.9c0,0,0.1,0.4,0.4,1l0,0l-1.9-9.1c0,0-48.9,5.1-54.2,5.1s-20.7-2.3-20.7-2.3v8.3
			c0,0,14.5,3,26.9,3C1086.2,485.9,1123.4,479.9,1123.4,479.9z"/>
		<path class="st14" d="M1094.7,474.6c0,0,1.2,8.2,1,9.3c-0.2,1.1,3.8-0.5,3.8-0.5l-1.7-9.1C1097.9,474.2,1096.9,473.2,1094.7,474.6
			z"/>
		<path class="st15" d="M1049.8,475c0,0-0.7,8.6,0.3,9.3c1,0.7-2.2-0.4-2.2-0.4s-0.1-7.4,0.3-9.2
			C1048.2,474.5,1049.8,475,1049.8,475z"/>
		<path class="st17" d="M1076.6,485.1c0,0.9-0.7,1.7-1.6,1.6l-13.2-0.7c-0.9,0-1.7-0.9-1.7-1.8v-6.6c0-0.9,0.8-1.7,1.7-1.7l12.7-0.3
			c0.9,0,1.7,0.7,1.8,1.7L1076.6,485.1z"/>
		<path class="st9" d="M1020,341.2c0,0-26,27.7-31.5,29.4c-5.5,1.7-61-16.2-61-16.2l-6.4,15c0,0,57.6,28.5,67,28.9
			c9.4,0.4,47.4-27.5,47.4-27.5S1026.2,335,1020,341.2z"/>
		<path class="st18" d="M1123.7,473.9l-8.8,10.4l10.4,21.2l8.7-16.3C1134,489.2,1125.5,474.7,1123.7,473.9z"/>
		<path class="st10" d="M1130.2,327.1c0,0,40.7,60.6,47,77.1c6.3,16.5-43.5,85.5-43.5,85.5l-10-15.8c0,0,28.6-61.9,26.1-67.4
			c-1.5-3.3-25-29.9-33-34.7C1108.9,366.9,1127.3,325.9,1130.2,327.1z"/>
		<path class="st11" d="M1091.8,329.4l-25.4,7.6c0,0,19.3-11.5,20.5-13.5C1088.2,321.7,1092,325.7,1091.8,329.4z"/>
		<path class="st19" d="M1095.3,292.7c0,0,2.1,8.4,0,15.2c-2.1,6.7-8.3,15.8-8.3,15.8l16.3,19.3c0,0,4.3-35.1,3.9-38.5
			C1106.8,301.1,1099.2,293.2,1095.3,292.7z"/>
		<path class="st11" d="M1043,318.3l-6,13.5l11.2-6.7l18.5,12.1C1066.7,337.1,1048,315.6,1043,318.3z"/>
		<path class="st19" d="M1062,293.4c0,0-5.7,1-7.6,4.1c-1.9,3.2-11.3,20.7-11.3,20.7l23.7,18.8c0,0-6.8-14-6.7-20
			C1060.2,311.1,1059.7,299.1,1062,293.4z"/>
		<path class="st20" d="M1060.8,291.5"/>
		<polygon class="st19" points="1121.9,476 1127.4,465.5 1140.2,480.3 1133.6,489.7 		"/>
		<path class="st18" d="M1122.6,212.6c1.3-14.7,1.5-26.4,1.5-26.4c-1.8-25-46.4-4.6-46.4-4.6h-1.9c0,0-44.7-20.4-46.4,4.6
			c0,0,0.2,11.8,1.5,26.6c-12.7-5.9-12.1,8.7-6,19.5c3.7,6.7,7.4,8.7,10,9.3c1.2,5.8,2.6,11.2,4.4,15.7c9.1,23.2,32.4,39,36.6,39.8
			c0.4,0.1,1.5,0.1,1.9,0c4.2-0.7,27.4-16.5,36.6-39.8c1.8-4.5,3.2-10,4.4-15.8c2.5-0.7,6.1-2.8,9.6-9.2
			C1134.2,221.5,1134.8,207.2,1122.6,212.6z"/>
		<path class="st12" d="M1024.3,219.8c0,0,0.1-0.3,0.6-0.8c0.4-0.5,1.1-1.2,2.4-1.2c0.6,0,1.3,0.2,1.9,0.6c0.6,0.4,1.1,0.9,1.5,1.4
			c0.2,0.3,0.4,0.5,0.6,0.9c0.2,0.3,0.3,0.6,0.5,0.9c0.3,0.7,0.6,1.4,0.8,2.1c0.2,0.7,0.3,1.4,0.4,2.1c0.1,0.7,0.1,1.4,0.1,2.1
			c0,1.3-0.2,2.6-0.4,3.6c-0.4,2.1-1.1,3.4-1.1,3.4s0.1-1.4,0.1-3.5c0-1,0-2.2-0.1-3.5c0-0.6-0.1-1.3-0.2-1.9
			c-0.1-0.6-0.2-1.3-0.4-1.9c-0.1-0.6-0.4-1.2-0.6-1.8c-0.1-0.3-0.3-0.6-0.4-0.9c-0.1-0.2-0.3-0.5-0.4-0.8c-0.3-0.5-0.7-0.9-1-1.3
			c-0.4-0.3-0.8-0.6-1.2-0.6c-0.8-0.2-1.6,0.2-2.1,0.5C1024.6,219.6,1024.3,219.8,1024.3,219.8z"/>
		<path class="st12" d="M1031.8,222.9c0,0-0.4,0.3-0.9,0.9c-0.5,0.6-1.1,1.4-1.6,2.3c-0.2,0.5-0.4,1-0.4,1.4c0,0.2-0.1,0.5,0,0.7
			c0,0.2,0,0.4,0.1,0.6c0.1,0.8,0.5,1.2,0.4,1.3c0,0-0.4-0.4-0.7-1.2c-0.1-0.2-0.1-0.4-0.2-0.7c-0.1-0.2-0.1-0.5-0.1-0.8
			c0-0.5,0-1.1,0.2-1.7c0.3-1.1,0.8-2.2,1.2-2.9c0.4-0.7,0.8-1.2,0.8-1.2L1031.8,222.9z"/>
		<path class="st21" d="M1094.7,181.5c0,0,19.3,0.4,21.1,17c1.8,16.5,1.8,29.9,1.8,29.9s15.8-33.1,13-49.8
			C1127.8,161.9,1095.8,170.8,1094.7,181.5z"/>
		<path class="st22" d="M1035.6,227.3c0,0-8.5-15.5-12.3-25.7c-3.9-10.2-5.3-34.8,0-38.7c5.3-3.9,7.4-5.6,7.4-5.6s2.5-13,14.1-13.7
			c11.6-0.7,13.7-1.8,13.7-1.8s10.2-11.6,25.3-11.6c15.1,0,29.2,2.1,41.2,20.1c12,17.9,13.4,20.1,13.4,20.1s-7,18.6-21.8,15.1
			c-14.8-3.5-23.5-7.1-34.5-0.4c-6.5,4-9.5,2.5-9.5,2.5s-16.5-8.8-28.5-4.6C1032.1,187.2,1033.9,210.8,1035.6,227.3z"/>
		<path class="st21" d="M1083.7,212.1c-2.2-1.1,3.9,3.7,7.7,2.3c3.8-1.4,11.8-2,15.9,0.6c4.1,2.6,5.4-0.5-5.2-6.3
			C1095.8,205.2,1086.4,213.5,1083.7,212.1z"/>
		<path class="st21" d="M1067.9,212.1c2.2-1.1-3.9,3.7-7.7,2.3c-3.8-1.4-11.8-2-15.9,0.6c-4.1,2.6-5.4-0.5,5.2-6.3
			C1055.8,205.2,1065.2,213.5,1067.9,212.1z"/>
		<ellipse class="st21" cx="1056.3" cy="227.3" rx="4.5" ry="8"/>
		<ellipse class="st21" cx="1096.7" cy="228.3" rx="4.5" ry="8"/>
		<path class="st21" d="M1067.9,273.3c0,0,1.4,0,3.4,0.1c1,0,2.2,0,3.5,0.1c1.3,0,2.6,0,3.9-0.1c0.7,0,1.3,0,2-0.1
			c0.7-0.1,1.3-0.1,1.9-0.2c0.6-0.1,1.2-0.1,1.8-0.2c0.6-0.1,1.1-0.1,1.6-0.2c1-0.2,1.8-0.3,2.4-0.5c0.6-0.1,0.9-0.2,0.9-0.2
			s-0.3,0.2-0.8,0.5c-0.5,0.3-1.3,0.7-2.3,1.1c-0.5,0.2-1,0.4-1.6,0.5c-0.6,0.2-1.2,0.3-1.8,0.4c-1.3,0.3-2.7,0.4-4.1,0.5
			c-1.4,0-2.8,0-4.1-0.1c-1.3-0.1-2.5-0.3-3.5-0.6C1069.1,273.9,1067.9,273.3,1067.9,273.3z"/>
		<path class="st21" d="M1075.2,262.7c-0.7-2.5-1.7-0.4-6,2c-4.3,2.4-8.7,4.1-8.7,7.5s2-3.7,8.1-3.1
			C1074.7,269.7,1076.7,268.1,1075.2,262.7z"/>
		<path class="st21" d="M1079.8,262.7c0.7-2.5,1.7-0.4,6,2s8.7,4.1,8.7,7.5s-2-3.7-8.1-3.1C1080.3,269.7,1078.3,268.1,1079.8,262.7z
			"/>
		<path class="st12" d="M1128.8,219.8c0,0-0.3-0.2-0.8-0.6c-0.5-0.3-1.3-0.7-2.1-0.5c-0.4,0.1-0.8,0.3-1.2,0.6
			c-0.4,0.4-0.7,0.8-1,1.3c-0.1,0.2-0.3,0.5-0.4,0.8c-0.1,0.3-0.3,0.6-0.4,0.9c-0.2,0.6-0.4,1.1-0.6,1.8c-0.2,0.6-0.3,1.3-0.4,1.9
			c-0.1,0.6-0.2,1.3-0.2,1.9c-0.1,1.3-0.1,2.4-0.1,3.5c0,2,0.1,3.5,0.1,3.5s-0.6-1.3-1.1-3.4c-0.2-1-0.4-2.3-0.4-3.6
			c0-0.7,0-1.4,0.1-2.1c0.1-0.7,0.2-1.4,0.4-2.1c0.2-0.7,0.5-1.4,0.8-2.1c0.2-0.3,0.3-0.6,0.5-0.9c0.2-0.4,0.4-0.6,0.6-0.9
			c0.4-0.6,0.9-1,1.5-1.4c0.6-0.4,1.2-0.6,1.9-0.6c1.3,0,2,0.8,2.4,1.2C1128.7,219.5,1128.8,219.8,1128.8,219.8z"/>
		<path class="st12" d="M1122.6,221.7c0,0,0.4,0.5,0.8,1.2c0.4,0.7,0.9,1.8,1.2,2.9c0.1,0.6,0.2,1.1,0.2,1.7c0,0.3,0,0.5-0.1,0.8
			c-0.1,0.2-0.1,0.5-0.2,0.7c-0.3,0.8-0.7,1.2-0.7,1.2c0,0,0.3-0.5,0.4-1.3c0-0.2,0-0.4,0.1-0.6c0-0.2,0-0.5,0-0.7
			c-0.1-0.5-0.2-1-0.4-1.4c-0.4-0.9-1-1.8-1.6-2.3c-0.5-0.6-0.9-0.9-0.9-0.9L1122.6,221.7z"/>
		<ellipse class="st19" cx="1069.8" cy="340.5" rx="1.7" ry="1.6"/>
		<path class="st19" d="M1072,380.7c0,0.9-0.8,1.6-1.7,1.6c-1,0-1.7-0.7-1.7-1.6c0-0.9,0.8-1.6,1.7-1.6
			C1071.2,379.1,1072,379.8,1072,380.7z"/>
		<path class="st19" d="M1073.3,422.3c0,0.9-0.8,1.6-1.7,1.6c-1,0-1.7-0.7-1.7-1.6c0-0.9,0.8-1.6,1.7-1.6
			C1072.5,420.6,1073.3,421.4,1073.3,422.3z"/>
		<path class="st19" d="M1073.3,465.5c0,0.9-0.8,1.6-1.7,1.6c-1,0-1.7-0.7-1.7-1.6c0-0.9,0.8-1.6,1.7-1.6
			C1072.5,463.9,1073.3,464.6,1073.3,465.5z"/>
		<path class="st12" d="M927.4,354.4c0,0-7.8-15.1-9.1-17.3c-1.3-2.2-6-1.5-8.2-2.9c-2.2-1.3-12.4-10.6-12.4-4.6
			c0,6,2.4,7.1,3.5,7.7c1.1,0.7-8.8,9-7.5,14.1c1.3,5.1,4,12.6,11.3,15.4c7.3,2.9,16.2,2,16.2,2S928.8,361.9,927.4,354.4z"/>
		<polygon class="st23" points="856.3,239.6 914.3,363.6 909,365.7 854.3,241.1 		"/>
		<path class="st18" d="M895.8,357.4c0,0,2.4-1.3,6.6-1.2c4.2,0.1,10.8-0.2,9.3-2.9c-1.4-2.6-15.4-7-18-1.8
			C892.3,354.6,895.8,357.4,895.8,357.4z"/>
		<path class="st18" d="M893.6,351c0,0,2.5-1.4,6.9-1.3c4.4,0.1,11.2-0.2,9.7-3c-1.5-2.8-16-7.3-18.7-1.8
			C889.9,348.2,893.6,351,893.6,351z"/>
		<path class="st18" d="M896.5,335.7c-2.5,0.2-6.1,2.1-6.1,6.1c0,4,1.1,3.2,1.1,3.2s3.2-2.9,6.3-2.5
			C900.9,342.8,902.1,335.3,896.5,335.7z"/>
		<path class="st18" d="M893.5,332c0,0-6-3.3-7.1,0c-1.1,3.3,5.3,6.2,5.3,6.2S901.9,338.1,893.5,332z"/>
		<path class="st19" d="M920.1,369.1c0,0,4.1,2,9.1,4.4c7.1-6.3,7.5-16.1,7.5-16.1v0c-5.6-1.7-9.3-2.9-9.3-2.9L920.1,369.1z"/>
	</g>
</g>
</svg>
